<svg width="80" height="80" viewBox="0 0 80 80" fill="none" xmlns="http://www.w3.org/2000/svg">
<path d="M66.125 53.625C64.25 40.5 53.25 30.5 40 30.5C26.75 30.5 15.75 40.5 13.875 53.5H66.125V53.625Z" fill="#428BC1"/>
<path d="M77.25 28.625C76.75 26.375 75.375 24.625 73.375 23.5C72.5 23 71.5 22.75 70.5 22.625C69.625 22.5 68.75 22.625 67.875 22.875C66.375 23.25 64.875 24 63.5 24.625C61.625 25.5 59.875 26.375 58.25 26.375V32.125C61.125 32.125 63.75 30.875 66 29.75C68.375 28.625 69.875 27.875 70.75 28.375C71.375 28.75 71.75 29.25 71.875 29.875C72 30.625 72 31.625 71.75 32.75C71.5 34 70.875 35.375 70.125 37C68.625 40.125 66.625 43.125 65.125 45.375C64.625 46.25 64.125 47 63.75 47.5L63.375 48.25C63.375 48.375 63.25 48.375 63.25 48.5H17C17 48.375 16.875 48.375 16.875 48.25L16.5 47.5C16.125 46.875 15.625 46.125 15.125 45.375C13.625 43.125 11.625 40.125 10.125 37C9.375 35.375 8.875 34 8.5 32.75C8.25 31.5 8.125 30.5 8.375 29.875C8.5 29.25 8.875 28.75 9.5 28.375C10.375 27.875 11.875 28.5 14.25 29.75C16.5 30.875 19 32.125 22 32.125V26.375C20.375 26.375 18.625 25.5 16.75 24.625C15.375 23.875 13.875 23.25 12.375 22.875C11.25 22.625 10.375 22.5 9.5 22.625C8.5 22.75 7.5 23 6.625 23.5C4.625 24.625 3.25 26.5 2.75 28.625C2.125 31.5 2.75 35.125 5 39.625C6.625 43 8.75 46.25 10.375 48.625C10.875 49.375 11.375 50.125 11.625 50.625C11.75 50.875 11.875 51.125 12.125 51.375C12.875 52.5 13.375 53.375 13.625 54.375V68.5C13.25 68.5 13 68.75 13 69.25C13 69.625 13.25 70 13.625 70H66.5C66.875 70 67.125 69.75 67.125 69.25C67.125 68.875 66.875 68.5 66.5 68.5V54.5C66.875 53.5 67.375 52.625 68 51.5C68.125 51.25 68.25 51 68.5 50.75C68.75 50.25 69.25 49.5 69.75 48.75C71.25 46.375 73.375 43.125 75.125 39.75C77.25 35.25 77.875 31.625 77.25 28.625" fill="#F2B200"/>
<path d="M41.125 34C41.75 36 38.625 39 34.125 40.5C29.625 42.125 25.375 41.75 24.625 39.75C24 37.75 27.125 34.75 31.625 33.25C36.125 31.75 40.375 32 41.125 34Z" fill="#42ADE2"/>
<path d="M37 55.75H43V69.25H37V55.75Z" fill="#FFDD7D"/>
<path d="M47.25 55.75H53.25V69.25H47.25V55.75Z" fill="#FFCE31"/>
<path d="M43 55.75H47.25V69.25H43V55.75Z" fill="white"/>
<path d="M57.5 55.75H61.75V69.25H57.5V55.75Z" fill="#FFCE31"/>
<path d="M13.5 55.75H17.75V69.25H13.5V55.75Z" fill="#F2B200"/>
<path d="M18.25 55.75H26.5V69.25H18.25V55.75Z" fill="#FFCE31"/>
<path d="M35.5 43.625C35.5 45.5 32.125 50.25 32.125 50.25C32.125 50.25 28.75 45.5 28.75 43.625C28.75 41.75 30.25 40.25 32.125 40.25C34 40.25 35.5 41.75 35.5 43.625Z" fill="#F2B200"/>
<path d="M51.125 43.625C51.125 45.5 47.75 50.25 47.75 50.25C47.75 50.25 44.375 45.5 44.375 43.625C44.375 41.75 45.875 40.25 47.75 40.25C49.625 40.25 51.125 41.75 51.125 43.625Z" fill="#F2B200"/>
<path d="M47.875 15.75H32.125L35.875 9.875H43.875L47.875 15.75Z" fill="#66CAF2"/>
<path d="M15.125 41C18.125 38.125 24.125 36.625 28.125 37.75C25 40.625 19.125 42.125 15.125 41Z" fill="#FFCE31"/>
<path d="M65.125 41C61.125 42.125 55.125 40.625 52.125 37.75C56.125 36.625 62.125 38.125 65.125 41Z" fill="#FFCE31"/>
<path d="M33.25 37.625C36.875 35.5 43 35.5 46.625 37.625C43 39.75 37 39.75 33.25 37.625" fill="#FFCE31"/>
<path d="M41.25 9.875L42.625 15.75H47.875L43.875 9.875H41.25Z" fill="#428BC1"/>
<path d="M41.25 9.875H38.5L37.375 15.75H42.625L41.25 9.875Z" fill="#42ADE2"/>
<path d="M38.5 9.875L37.375 15.75H32.125L35.875 9.875H38.5Z" fill="#66CAF2"/>
<path d="M14.375 52.125C22.875 51.5 31.5 51.375 40 51.375C48.5 51.375 57.125 51.5 65.625 52.125C57.125 52.75 48.5 52.875 40 52.875C31.5 52.75 22.875 52.75 14.375 52.125Z" fill="#FFDD7D"/>
<path d="M13.5 55.75H66.375V57.125H13.5V55.75Z" fill="#428BC1"/>
<path d="M13.5 57.125C13.8452 57.125 14.125 56.7892 14.125 56.375C14.125 55.9608 13.8452 55.625 13.5 55.625C13.1548 55.625 12.875 55.9608 12.875 56.375C12.875 56.7892 13.1548 57.125 13.5 57.125Z" fill="#428BC1"/>
<path d="M66.5 57.125C66.8452 57.125 67.125 56.7892 67.125 56.375C67.125 55.9608 66.8452 55.625 66.5 55.625C66.1548 55.625 65.875 55.9608 65.875 56.375C65.875 56.7892 66.1548 57.125 66.5 57.125Z" fill="#428BC1"/>
<path d="M63.375 25.5C63 24.125 62.5 22.875 61.625 21.75C60.75 20.625 59.75 19.625 58.375 18.875C57.375 18.375 56.375 18 55.25 17.875C54.375 17.75 53.375 17.875 52.375 18.125C50.75 18.5 49.125 19.375 47.5 20.125C47.125 20.375 46.625 20.5 46.125 20.75C47.125 18.75 47.75 16.875 47.75 15.625H32.125C32.125 16.875 32.75 18.75 33.75 20.75C33.25 20.5 32.875 20.375 32.375 20.125C30.75 19.375 29.125 18.5 27.5 18.125C26.5 17.875 25.5 17.75 24.625 17.875C23.5 18 22.5 18.25 21.5 18.875C20.25 19.625 19.125 20.625 18.25 21.75C17.5 22.875 16.875 24.125 16.5 25.5C15.625 29.125 16.125 33.75 18.125 39.125C19.625 43.375 21.625 46.875 22.5 48.625H29.125C28.875 48.125 28.5 47.625 28.25 47.125C28.125 46.875 27.875 46.625 27.75 46.375C25.125 42.125 20.625 32.5 22 27C22.375 25.625 23 24.625 24.25 24C24.625 23.75 25.125 23.625 26.25 23.875C27.375 24.125 28.625 24.75 30 25.5C32.125 26.625 34.5 27.75 37.125 28.125V48.75H42.75V28.125C45.375 27.75 47.75 26.625 50 25.5C51.375 24.875 52.625 24.125 53.75 23.875C54.875 23.625 55.375 23.75 55.75 24C56.875 24.625 57.625 25.625 58 27C59.375 32.5 54.875 42 52.25 46.375C52.125 46.625 51.875 46.875 51.75 47.125C51.375 47.625 51.125 48.125 50.875 48.625H57.5C58.5 47 60.375 43.375 61.875 39.125C63.75 33.75 64.25 29.125 63.375 25.5Z" fill="#FFCE31"/>
<path d="M40 21.375C37.875 21.375 36 20.5 34.5 19.25C34.875 22 37.125 24.125 40 24.125C42.75 24.125 45.125 22 45.5 19.25C44 20.625 42.125 21.375 40 21.375Z" fill="#F2B200"/>
</svg>
